<svg width="18" height="27" viewBox="0 0 18 27" fill="none" xmlns="http://www.w3.org/2000/svg">
<path fill-rule="evenodd" clip-rule="evenodd" d="M7.68066 0C6.9043 0 6.13867 0.180664 5.44434 0.52832L4.5 1L4.22559 1.13672C3.74512 1.37793 3.30664 1.69336 2.92578 2.07422L2.5 2.5L1.95508 3.07422C1.61523 3.43262 1.33105 3.83789 1.11035 4.2793L0.65918 5.18262C0.552734 5.39355 0.462891 5.6123 0.387695 5.83691L0.256836 6.23047C0.0869141 6.74023 0 7.27441 0 7.81152V8.38477C0 8.79297 0.0498047 9.2002 0.149414 9.59668L0.5 11L1.5 13.5L2.5 16L3.5 18L4.5 20L5.5 22L6.5 24L7.44141 25.8818C7.48047 25.9609 7.52637 26.0352 7.5791 26.1055L7.6582 26.2109C8.27441 27.0332 9.54102 26.9189 10 26L11 24L12 22L13 20L14 18L15 16L16 13.5L17 11L17.3506 9.59668C17.4502 9.2002 17.5 8.79297 17.5 8.38477V7.81152C17.5 7.27441 17.4131 6.74023 17.2432 6.23047L17.1123 5.83691C17.0684 5.70703 17.0205 5.5791 16.9668 5.45312C16.9277 5.36133 16.8857 5.27148 16.8408 5.18262L16.3896 4.2793C16.1689 3.83789 15.8848 3.43262 15.5449 3.07422L15 2.5L14.5742 2.07422C14.1934 1.69336 13.7549 1.37793 13.2744 1.13672L13 1L12.0557 0.52832C11.3613 0.180664 10.5957 0 9.81934 0H9H7.68066ZM9 11C10.6572 11 12 9.65723 12 8C12 6.93164 11.4414 5.99316 10.6006 5.46191C10.1377 5.16895 9.58887 5 9 5C7.94336 5 7.01465 5.5459 6.47949 6.37207C6.17578 6.84082 6 7.39941 6 8C6 9.65723 7.34277 11 9 11Z" fill="white"/>
</svg>
