<svg width="16" height="15" viewBox="0 0 16 15" fill="none" xmlns="http://www.w3.org/2000/svg">
<path d="M9.90437 10.4021L9.46825 8.45026L15.2355 13.4142L14.2672 14.5391L9.90437 10.4021Z" fill="white"/>
<path d="M12 6C12 9.31371 9.31371 12 6 12C2.68629 12 0 9.31371 0 6C0 2.68629 2.68629 0 6 0C9.31371 0 12 2.68629 12 6ZM1.66888 6C1.66888 8.39201 3.60799 10.3311 6 10.3311C8.39201 10.3311 10.3311 8.39201 10.3311 6C10.3311 3.60799 8.39201 1.66888 6 1.66888C3.60799 1.66888 1.66888 3.60799 1.66888 6Z" fill="white"/>
</svg>
