<svg width="129" height="64" viewBox="0 0 129 64" fill="none" xmlns="http://www.w3.org/2000/svg">
<path d="M39.8125 51.4062C39.8125 53.1562 39.1667 54.625 37.875 55.8125C36.5833 57 34.6562 57.8854 32.0938 58.4688C30.6146 58.8021 28.5521 59.0833 25.9062 59.3125C23.2604 59.5417 20.0312 59.6979 16.2188 59.7812C12.7396 59.8646 9.88542 60 7.65625 60.1875C5.44792 60.3958 3.875 60.6875 2.9375 61.0625L4.75 34.5625L0.40625 34.2188L0.71875 28.875L5.1875 28.7188L5.59375 22.8438L0.9375 22.5L1.25 17.25L5.96875 17.4062L6.34375 11.2188L1.5 10.6875L1.5625 5.84375L19.4375 7.125L10.5938 53.9375L11.875 53.875C12.7083 53.8333 13.7188 53.8646 14.9062 53.9688C16.0938 54.0521 17.4479 54.1562 18.9688 54.2812C20.6146 54.4271 22.0208 54.5417 23.1875 54.625C24.3542 54.6875 25.3021 54.7188 26.0312 54.7188C29.3229 54.7188 31.7917 54.2604 33.4375 53.3438C35.0833 52.4062 35.9062 51 35.9062 49.125C35.9062 48.5 35.8229 47.8333 35.6562 47.125C35.4896 46.3958 35.2396 45.6146 34.9062 44.7812L37.25 43.5C38.1042 45.0417 38.7396 46.4688 39.1562 47.7812C39.5938 49.0938 39.8125 50.3021 39.8125 51.4062ZM29.1875 38.6875C29.1875 39.75 28.8021 40.6771 28.0312 41.4688C27.2604 42.2396 26.3438 42.625 25.2812 42.625C24.1979 42.625 23.2708 42.2396 22.5 41.4688C21.7292 40.6771 21.3438 39.75 21.3438 38.6875C21.3438 37.6667 21.7292 36.7812 22.5 36.0312C23.2917 35.2604 24.2188 34.875 25.2812 34.875C26.3229 34.875 27.2292 35.2604 28 36.0312C28.7917 36.7812 29.1875 37.6667 29.1875 38.6875ZM89.125 58.4062L83.5938 59.6875L79.8438 48.2812L57.4375 47.9688L51.8438 63.1875L39.8125 54.9062L63.3438 6.65625L72.0312 5.90625L89.125 58.4062ZM74.9062 33.375L69.0312 12.375L60.9688 36.5625L74.9062 33.375ZM78 42.7812L76.1875 37.3438L59.375 41.5L58.375 44.0312L78 42.7812ZM54.875 39.4375L53.75 38C52.25 40.5 50.9167 43.1354 49.75 45.9062C48.5833 48.6771 47.5833 51.5938 46.75 54.6562L49.625 55.875C50.0417 53.0208 50.6875 50.2292 51.5625 47.5C52.4583 44.75 53.5625 42.0625 54.875 39.4375ZM128.062 3.25C128.062 5.75 127.25 7.83333 125.625 9.5C124 11.1667 121.552 12.4271 118.281 13.2812C117.135 13.5729 115.24 13.875 112.594 14.1875C109.948 14.4792 106.573 14.7604 102.469 15.0312L104.156 28.0938L118.969 25.6875L120.125 29.4688L104.781 31.7812L105.031 33.2812L120.031 32.25L119.969 37.25L105.656 37.75L108.938 59.6875L95.1562 61.5312V55.9375L99.75 54.8125L99.6562 52.0312L95.1562 52.5938L95.2188 48.3438L99.4375 47.6562L99.3438 44.7812L95.2188 45.3125V41.2812L99.2812 40.5312L99.125 37.75L95.3125 38L96.1562 8.78125L111.469 8.5625C113.823 8.52083 115.812 8.40625 117.438 8.21875C119.062 8.03125 120.312 7.79167 121.188 7.5C122.917 6.91667 124.177 6.01042 124.969 4.78125C125.781 3.55208 126.125 2.02083 126 0.1875L127.75 0.5C127.854 1 127.927 1.47917 127.969 1.9375C128.031 2.375 128.062 2.8125 128.062 3.25Z" fill="black"/>
</svg>
