<svg width="100" height="100" viewBox="0 0 100 100" fill="none" xmlns="http://www.w3.org/2000/svg">
<rect x="2" y="2" width="96" height="96" rx="28" fill="black" stroke="white" stroke-width="4"/>
<path d="M38.9062 58.7031C38.9062 59.5781 38.5833 60.3125 37.9375 60.9062C37.2917 61.5 36.3281 61.9427 35.0469 62.2344C34.3073 62.401 33.276 62.5417 31.9531 62.6562C30.6302 62.7708 29.0156 62.849 27.1094 62.8906C25.3698 62.9323 23.9427 63 22.8281 63.0938C21.724 63.1979 20.9375 63.3438 20.4688 63.5312L21.375 50.2812L19.2031 50.1094L19.3594 47.4375L21.5938 47.3594L21.7969 44.4219L19.4688 44.25L19.625 41.625L21.9844 41.7031L22.1719 38.6094L19.75 38.3438L19.7812 35.9219L28.7188 36.5625L24.2969 59.9688L24.9375 59.9375C25.3542 59.9167 25.8594 59.9323 26.4531 59.9844C27.0469 60.026 27.724 60.0781 28.4844 60.1406C29.3073 60.2135 30.0104 60.2708 30.5938 60.3125C31.1771 60.3438 31.651 60.3594 32.0156 60.3594C33.6615 60.3594 34.8958 60.1302 35.7188 59.6719C36.5417 59.2031 36.9531 58.5 36.9531 57.5625C36.9531 57.25 36.9115 56.9167 36.8281 56.5625C36.7448 56.1979 36.6198 55.8073 36.4531 55.3906L37.625 54.75C38.0521 55.5208 38.3698 56.2344 38.5781 56.8906C38.7969 57.5469 38.9062 58.151 38.9062 58.7031ZM33.5938 52.3438C33.5938 52.875 33.401 53.3385 33.0156 53.7344C32.6302 54.1198 32.1719 54.3125 31.6406 54.3125C31.099 54.3125 30.6354 54.1198 30.25 53.7344C29.8646 53.3385 29.6719 52.875 29.6719 52.3438C29.6719 51.8333 29.8646 51.3906 30.25 51.0156C30.6458 50.6302 31.1094 50.4375 31.6406 50.4375C32.1615 50.4375 32.6146 50.6302 33 51.0156C33.3958 51.3906 33.5938 51.8333 33.5938 52.3438ZM63.5625 62.2031L60.7969 62.8438L58.9219 57.1406L47.7188 56.9844L44.9219 64.5938L38.9062 60.4531L50.6719 36.3281L55.0156 35.9531L63.5625 62.2031ZM56.4531 49.6875L53.5156 39.1875L49.4844 51.2812L56.4531 49.6875ZM58 54.3906L57.0938 51.6719L48.6875 53.75L48.1875 55.0156L58 54.3906ZM46.4375 52.7188L45.875 52C45.125 53.25 44.4583 54.5677 43.875 55.9531C43.2917 57.3385 42.7917 58.7969 42.375 60.3281L43.8125 60.9375C44.0208 59.5104 44.3438 58.1146 44.7812 56.75C45.2292 55.375 45.7812 54.0312 46.4375 52.7188ZM83.0312 34.625C83.0312 35.875 82.625 36.9167 81.8125 37.75C81 38.5833 79.776 39.2135 78.1406 39.6406C77.5677 39.7865 76.6198 39.9375 75.2969 40.0938C73.974 40.2396 72.2865 40.3802 70.2344 40.5156L71.0781 47.0469L78.4844 45.8438L79.0625 47.7344L71.3906 48.8906L71.5156 49.6406L79.0156 49.125L78.9844 51.625L71.8281 51.875L73.4688 62.8438L66.5781 63.7656V60.9688L68.875 60.4062L68.8281 59.0156L66.5781 59.2969L66.6094 57.1719L68.7188 56.8281L68.6719 55.3906L66.6094 55.6562V53.6406L68.6406 53.2656L68.5625 51.875L66.6562 52L67.0781 37.3906L74.7344 37.2812C75.9115 37.2604 76.9062 37.2031 77.7188 37.1094C78.5312 37.0156 79.1562 36.8958 79.5938 36.75C80.4583 36.4583 81.0885 36.0052 81.4844 35.3906C81.8906 34.776 82.0625 34.0104 82 33.0938L82.875 33.25C82.9271 33.5 82.9635 33.7396 82.9844 33.9688C83.0156 34.1875 83.0312 34.4062 83.0312 34.625Z" fill="white"/>
</svg>
